<?xml version="1.0" encoding="UTF-8"?>
<!DOCTYPE svg PUBLIC "-//W3C//DTD SVG 1.1//EN" "http://www.w3.org/Graphics/SVG/1.1/DTD/svg11.dtd">
<svg xmlns="http://www.w3.org/2000/svg" version="1.1" width="1280px" height="1280px" style="shape-rendering:geometricPrecision; text-rendering:geometricPrecision; image-rendering:optimizeQuality; fill-rule:evenodd; clip-rule:evenodd" xmlns:xlink="http://www.w3.org/1999/xlink">
<g><path style="opacity:0.01" fill="#fcfcfc" d="M 240.5,413.5 C 261.167,412.167 281.833,412.167 302.5,413.5C 281.863,414.823 261.196,414.823 240.5,413.5 Z"/></g>
<g><path style="opacity:0.01" fill="#fefffe" d="M 488.5,413.5 C 461.515,414.306 434.181,414.806 406.5,415C 405.756,416.039 404.756,416.539 403.5,416.5C 403.756,414.224 405.09,413.057 407.5,413C 434.67,412.17 461.67,412.336 488.5,413.5 Z"/></g>
<g><path style="opacity:0.01" fill="#fefffe" d="M 557.5,413.5 C 636.666,412.334 715.999,412.168 795.5,413C 796.823,413.816 797.489,414.983 797.5,416.5C 796.206,415.71 795.039,414.71 794,413.5C 715.443,414.827 636.609,414.827 557.5,413.5 Z"/></g>
<g><path style="opacity:0.01" fill="#fcfcfc" d="M 991.5,413.5 C 968.777,413.878 946.11,414.878 923.5,416.5C 923.756,414.224 925.09,413.057 927.5,413C 949.004,412.171 970.337,412.337 991.5,413.5 Z"/></g>
<g><path style="opacity:0.945" fill="#e0e0e0" d="M 240.5,413.5 C 261.196,414.823 281.863,414.823 302.5,413.5C 305.533,415.187 308.866,416.52 312.5,417.5C 315.84,422.647 318.007,428.314 319,434.5C 319.333,495.167 319.667,555.833 320,616.5C 321.666,623.093 323.333,629.759 325,636.5C 326.981,638.359 327.981,640.692 328,643.5C 330.954,647.159 333.954,650.826 337,654.5C 344.894,660.375 353.894,662.708 364,661.5C 369.5,661.167 375,660.833 380.5,660.5C 381.668,658.783 383.335,658.116 385.5,658.5C 385.338,656.473 385.505,654.473 386,652.5C 386.414,652.043 386.914,651.709 387.5,651.5C 388.33,645.528 388.83,639.528 389,633.5C 389.419,632.328 390.085,631.328 391,630.5C 391.333,563.167 391.667,495.833 392,428.5C 393.821,424.346 395.654,420.346 397.5,416.5C 399.5,416.5 401.5,416.5 403.5,416.5C 404.756,416.539 405.756,416.039 406.5,415C 434.181,414.806 461.515,414.306 488.5,413.5C 489.5,413.5 490.5,413.5 491.5,413.5C 491.5,414.5 491.5,415.5 491.5,416.5C 496.341,415.846 499.507,417.846 501,422.5C 502.286,425.405 503.286,428.405 504,431.5C 504.667,490.167 504.667,548.833 504,607.5C 502.305,615.744 501.305,624.078 501,632.5C 499.196,641.544 497.196,650.544 495,659.5C 491.421,666.896 488.421,674.563 486,682.5C 483.873,683.397 483.373,684.731 484.5,686.5C 487.563,683.562 489.896,680.229 491.5,676.5C 492.5,676.5 493.5,676.5 494.5,676.5C 495.139,674.24 496.306,672.24 498,670.5C 503.627,668.126 507.461,664.126 509.5,658.5C 510.5,658.5 511.5,658.5 512.5,658.5C 513.199,656.005 514.199,653.672 515.5,651.5C 516.5,651.5 517.5,651.5 518.5,651.5C 518.5,650.5 518.5,649.5 518.5,648.5C 520.905,647.313 523.239,645.813 525.5,644C 527.148,641.836 528.815,639.669 530.5,637.5C 533.452,636.932 536.119,635.766 538.5,634C 540.5,633.333 542.5,633.333 544.5,634C 547.014,635.757 549.681,637.257 552.5,638.5C 554.498,642.276 555.998,646.276 557,650.5C 559.111,653.059 560.944,655.726 562.5,658.5C 565.022,658.128 567.022,658.961 568.5,661C 572.5,661.333 576.5,661.667 580.5,662C 582.618,662.26 584.284,663.26 585.5,665C 609.174,665.833 632.84,665.666 656.5,664.5C 656.709,663.914 657.043,663.414 657.5,663C 660.471,662.206 663.471,661.539 666.5,661C 664.751,657.734 663.084,654.567 661.5,651.5C 660.5,651.5 659.5,651.5 658.5,651.5C 656.896,647.771 654.563,644.438 651.5,641.5C 650.571,640.311 650.238,638.978 650.5,637.5C 647.244,636.534 644.244,635.201 641.5,633.5C 641.5,632.5 641.5,631.5 641.5,630.5C 640.5,630.5 639.5,630.5 638.5,630.5C 638.5,629.167 638.5,627.833 638.5,626.5C 637.5,626.5 636.5,626.5 635.5,626.5C 635.5,625.5 635.5,624.5 635.5,623.5C 634.5,623.5 633.5,623.5 632.5,623.5C 632.5,622.167 632.5,620.833 632.5,619.5C 631.127,619.657 629.793,619.49 628.5,619C 627.624,617.415 626.291,616.415 624.5,616C 623.663,614.989 623.33,613.822 623.5,612.5C 622.5,612.5 621.5,612.5 620.5,612.5C 619.199,610.328 618.199,607.995 617.5,605.5C 615.712,605.785 614.045,605.452 612.5,604.5C 609.602,599.734 605.602,596.401 600.5,594.5C 600.5,593.5 600.5,592.5 600.5,591.5C 599.5,591.5 598.5,591.5 597.5,591.5C 597.5,590.167 597.5,588.833 597.5,587.5C 595.5,587.5 593.5,587.5 591.5,587.5C 591.5,586.5 591.5,585.5 591.5,584.5C 590.5,584.5 589.5,584.5 588.5,584.5C 588.5,583.167 588.5,581.833 588.5,580.5C 586.801,580.66 585.134,580.494 583.5,580C 582.667,578.5 581.5,577.333 580,576.5C 579.517,575.552 579.351,574.552 579.5,573.5C 576.412,573.803 574.746,572.47 574.5,569.5C 573.167,569.5 571.833,569.5 570.5,569.5C 569.199,567.328 568.199,564.995 567.5,562.5C 565.833,562.5 564.167,562.5 562.5,562.5C 561.199,560.328 560.199,557.995 559.5,555.5C 557.801,555.66 556.134,555.494 554.5,555C 553.667,553.5 552.5,552.333 551,551.5C 550.517,550.552 550.351,549.552 550.5,548.5C 549.5,548.5 548.5,548.5 547.5,548.5C 547.5,547.5 547.5,546.5 547.5,545.5C 545.5,545.167 543.5,544.833 541.5,544.5C 540.199,542.328 539.199,539.995 538.5,537.5C 536.801,537.66 535.134,537.494 533.5,537C 532.667,535.5 531.5,534.333 530,533.5C 529.517,532.552 529.351,531.552 529.5,530.5C 517.206,525.334 511.706,516.001 513,502.5C 515.941,498.329 515.941,494.329 513,490.5C 511.05,474.263 512.717,458.596 518,443.5C 523.56,435.613 529.727,428.28 536.5,421.5C 538.943,419.945 541.61,419.278 544.5,419.5C 544.5,418.5 544.5,417.5 544.5,416.5C 549.267,417.016 553.601,416.016 557.5,413.5C 636.609,414.827 715.443,414.827 794,413.5C 795.039,414.71 796.206,415.71 797.5,416.5C 799.199,416.34 800.866,416.506 802.5,417C 803.333,418.5 804.5,419.667 806,420.5C 806.702,425.036 807.869,429.369 809.5,433.5C 806.777,444.551 802.11,454.551 795.5,463.5C 794.549,467.073 793.215,470.407 791.5,473.5C 790.5,473.5 789.5,473.5 788.5,473.5C 788.64,478.368 786.807,482.368 783,485.5C 782.667,487.167 782.333,488.833 782,490.5C 776.207,500.182 770.541,509.849 765,519.5C 763.5,520.333 762.333,521.5 761.5,523C 755.843,523.499 750.176,523.666 744.5,523.5C 744.5,522.5 744.5,521.5 744.5,520.5C 740.759,521.401 738.759,520.068 738.5,516.5C 735.136,517.211 732.803,516.044 731.5,513C 728.914,511.689 726.414,510.189 724,508.5C 723.517,507.552 723.351,506.552 723.5,505.5C 721.5,505.5 719.5,505.5 717.5,505.5C 717.5,504.5 717.5,503.5 717.5,502.5C 714.722,502.978 712.722,501.978 711.5,499.5C 677.172,498.333 642.838,498.167 608.5,499C 610.009,500.924 612.009,502.091 614.5,502.5C 615.386,503.325 615.719,504.325 615.5,505.5C 618.596,505.919 621.263,507.252 623.5,509.5C 624.386,510.325 624.719,511.325 624.5,512.5C 626.288,512.215 627.955,512.548 629.5,513.5C 632.731,516.82 636.065,519.986 639.5,523C 641.839,524.343 644.172,525.676 646.5,527C 647.337,528.011 647.67,529.178 647.5,530.5C 648.873,530.343 650.207,530.51 651.5,531C 652.364,532.697 653.697,533.863 655.5,534.5C 656.386,535.325 656.719,536.325 656.5,537.5C 657.93,537.421 659.264,537.754 660.5,538.5C 666.676,543.844 672.676,549.344 678.5,555C 683.4,557.066 686.734,560.566 688.5,565.5C 690.308,565.491 691.975,565.991 693.5,567C 695.667,569.167 697.833,571.333 700,573.5C 700.483,574.448 700.649,575.448 700.5,576.5C 701.93,576.421 703.264,576.754 704.5,577.5C 711.149,584.982 718.316,591.982 726,598.5C 730.69,604.848 735.69,610.848 741,616.5C 741.483,617.448 741.649,618.448 741.5,619.5C 742.5,619.5 743.5,619.5 744.5,619.5C 753.816,631.343 762.65,643.677 771,656.5C 771.333,658.167 771.667,659.833 772,661.5C 777.316,669.339 780.482,678.006 781.5,687.5C 782.489,683.893 782.823,680.226 782.5,676.5C 783.5,676.5 784.5,676.5 785.5,676.5C 785.18,673.102 785.513,669.768 786.5,666.5C 789.405,656.254 791.905,645.921 794,635.5C 794.667,634.833 795.333,634.167 796,633.5C 797.566,626.971 798.9,620.305 800,613.5C 800.414,613.043 800.914,612.709 801.5,612.5C 802.167,609.167 802.833,605.833 803.5,602.5C 804.086,602.291 804.586,601.957 805,601.5C 805.333,598.5 805.667,595.5 806,592.5C 806.667,591.833 807.333,591.167 808,590.5C 809.566,583.971 810.9,577.305 812,570.5C 812.414,570.043 812.914,569.709 813.5,569.5C 814.167,566.167 814.833,562.833 815.5,559.5C 816.086,559.291 816.586,558.957 817,558.5C 818.566,551.971 819.9,545.305 821,538.5C 821.414,538.043 821.914,537.709 822.5,537.5C 823.167,534.167 823.833,530.833 824.5,527.5C 825.086,527.291 825.586,526.957 826,526.5C 826.333,523.5 826.667,520.5 827,517.5C 827.667,516.833 828.333,516.167 829,515.5C 829.333,512.5 829.667,509.5 830,506.5C 831.826,503.321 833.493,499.987 835,496.5C 834.898,491.243 834.064,486.076 832.5,481C 832.667,478.833 832.833,476.667 833,474.5C 834.751,472.51 835.751,470.177 836,467.5C 849.936,457.93 864.436,449.097 879.5,441C 892.146,433.031 904.813,425.031 917.5,417C 919.473,416.505 921.473,416.338 923.5,416.5C 946.11,414.878 968.777,413.878 991.5,413.5C 992.922,413.75 993.922,414.583 994.5,416C 999.787,417.607 1003.62,421.107 1006,426.5C 1008.33,435.161 1010.33,443.828 1012,452.5C 1012.67,453.167 1013.33,453.833 1014,454.5C 1016.26,464.513 1018.59,474.513 1021,484.5C 1022.59,488.841 1024.26,493.174 1026,497.5C 1038.03,544.012 1050.69,590.346 1064,636.5C 1064.33,639.167 1064.67,641.833 1065,644.5C 1065.67,645.167 1066.33,645.833 1067,646.5C 1067.33,649.5 1067.67,652.5 1068,655.5C 1068.67,656.167 1069.33,656.833 1070,657.5C 1071.35,663.842 1072.68,670.175 1074,676.5C 1074.91,677.328 1075.58,678.328 1076,679.5C 1075.95,683.521 1076.95,687.187 1079,690.5C 1079.33,693.167 1079.67,695.833 1080,698.5C 1083.25,706.583 1085.92,714.916 1088,723.5C 1090.48,733.058 1087.98,740.891 1080.5,747C 1054.5,747.5 1028.5,747.667 1002.5,747.5C 1002.5,746.5 1002.5,745.5 1002.5,744.5C 1001.5,744.5 1000.5,744.5 999.5,744.5C 999.5,743.167 999.5,741.833 999.5,740.5C 998.5,740.5 997.5,740.5 996.5,740.5C 996.998,737.319 996.165,734.653 994,732.5C 993.502,729.183 993.335,725.85 993.5,722.5C 992.5,722.5 991.5,722.5 990.5,722.5C 990.82,719.102 990.487,715.768 989.5,712.5C 988.296,709.397 986.796,706.397 985,703.5C 982.868,697.106 981.368,690.439 980.5,683.5C 979.104,679.846 977.437,676.179 975.5,672.5C 942.544,673.493 909.544,673.826 876.5,673.5C 876.82,676.898 876.487,680.232 875.5,683.5C 870.597,700.44 866.097,717.44 862,734.5C 860.214,736.881 859.047,739.548 858.5,742.5C 857.15,743.95 855.484,744.617 853.5,744.5C 853.5,745.5 853.5,746.5 853.5,747.5C 827.833,747.5 802.167,747.5 776.5,747.5C 775.199,745.328 774.199,742.995 773.5,740.5C 772.5,740.5 771.5,740.5 770.5,740.5C 770.137,735.485 768.803,735.318 766.5,740C 765.207,740.49 763.873,740.657 762.5,740.5C 762.719,741.675 762.386,742.675 761.5,743.5C 759.009,743.909 757.009,745.076 755.5,747C 656.834,747.5 558.167,747.667 459.5,747.5C 459.5,746.5 459.5,745.5 459.5,744.5C 457.738,744.643 456.071,744.309 454.5,743.5C 453.526,741.257 453.192,738.924 453.5,736.5C 452.5,736.5 451.5,736.5 450.5,736.5C 450.5,733.167 450.5,729.833 450.5,726.5C 442.661,731.184 434.661,735.684 426.5,740C 421.903,739.899 417.903,741.232 414.5,744C 410.789,744.175 407.122,744.675 403.5,745.5C 403.291,746.086 402.957,746.586 402.5,747C 377.502,747.5 352.502,747.667 327.5,747.5C 327.5,746.5 327.5,745.5 327.5,744.5C 322.453,744.663 317.453,744.329 312.5,743.5C 312.5,742.5 312.5,741.5 312.5,740.5C 309.813,740.664 307.146,740.497 304.5,740C 299.385,737.791 294.385,735.291 289.5,732.5C 288.288,730.077 286.288,729.077 283.5,729.5C 283.5,728.5 283.5,727.5 283.5,726.5C 280.041,725.932 277.041,724.599 274.5,722.5C 274.5,721.5 274.5,720.5 274.5,719.5C 273.5,719.5 272.5,719.5 271.5,719.5C 271.5,718.167 271.5,716.833 271.5,715.5C 269.801,715.66 268.134,715.494 266.5,715C 264.411,712.454 262.245,709.954 260,707.5C 259.517,706.552 259.351,705.552 259.5,704.5C 258.5,704.5 257.5,704.5 256.5,704.5C 255.439,698.472 252.606,693.472 248,689.5C 247.845,685.343 246.178,682.01 243,679.5C 241.407,674.216 239.407,669.216 237,664.5C 236.667,661.5 236.333,658.5 236,655.5C 235.586,655.043 235.086,654.709 234.5,654.5C 233.507,649.88 233.173,645.214 233.5,640.5C 232.5,640.5 231.5,640.5 230.5,640.5C 230.829,634.794 230.495,629.128 229.5,623.5C 228.914,623.291 228.414,622.957 228,622.5C 227.5,588.502 227.333,554.502 227.5,520.5C 220.698,517.597 213.698,515.097 206.5,513C 205.167,512.333 204.167,511.333 203.5,510C 201.167,509.667 198.833,509.333 196.5,509C 195.663,507.989 195.33,506.822 195.5,505.5C 192.5,505.5 189.5,505.5 186.5,505.5C 186.5,504.5 186.5,503.5 186.5,502.5C 183.813,502.664 181.146,502.497 178.5,502C 177.663,500.989 177.33,499.822 177.5,498.5C 175.5,498.5 173.5,498.5 171.5,498.5C 169.524,495.026 167.691,491.359 166,487.5C 163.33,476.317 166.83,467.984 176.5,462.5C 178.79,458.524 182.123,456.19 186.5,455.5C 187.688,450.992 190.688,448.658 195.5,448.5C 195.351,447.448 195.517,446.448 196,445.5C 197.821,442.851 200.321,441.184 203.5,440.5C 205.464,436.857 208.464,434.857 212.5,434.5C 212.33,433.178 212.663,432.011 213.5,431C 218.319,428.599 222.319,425.265 225.5,421C 227.025,419.991 228.692,419.491 230.5,419.5C 230.5,418.5 230.5,417.5 230.5,416.5C 234.256,416.467 237.589,415.467 240.5,413.5 Z M 917.5,530.5 C 918.5,530.5 919.5,530.5 920.5,530.5C 920.351,531.552 920.517,532.552 921,533.5C 924.548,535.929 926.548,539.262 927,543.5C 931.849,551.865 936.183,560.532 940,569.5C 942.652,576.439 945.152,583.439 947.5,590.5C 931.833,590.5 916.167,590.5 900.5,590.5C 900.461,588.641 901.294,587.308 903,586.5C 904.1,579.695 905.434,573.029 907,566.5C 907.667,565.833 908.333,565.167 909,564.5C 911.321,552.961 914.155,541.627 917.5,530.5 Z M 481.5,688.5 C 482.773,689.077 482.773,689.743 481.5,690.5C 480.537,690.03 480.537,689.363 481.5,688.5 Z"/></g>
<g><path style="opacity:0.947" fill="#e0e0e0" d="M 314.5,808.5 C 314.062,808.435 313.728,808.601 313.5,809C 314.191,810.067 314.691,811.234 315,812.5C 315.333,868.167 315.667,923.833 316,979.5C 318.093,980.234 318.593,979.567 317.5,977.5C 318.319,974.695 318.819,971.695 319,968.5C 321.766,964.921 324.266,961.254 326.5,957.5C 345.466,956.538 364.466,956.204 383.5,956.5C 383.167,906.162 383.5,855.829 384.5,805.5C 385.655,802.611 387.322,800.111 389.5,798C 391.619,797.902 393.286,797.069 394.5,795.5C 421.167,794.167 447.833,794.167 474.5,795.5C 475.714,797.069 477.381,797.902 479.5,798C 482.77,801.518 484.937,805.685 486,810.5C 486.333,822.833 486.667,835.167 487,847.5C 487.5,846.5 488,845.5 488.5,844.5C 493.078,841.703 497.078,838.203 500.5,834C 501.5,833.667 502.5,833.333 503.5,833C 515.353,822.646 527.353,812.479 539.5,802.5C 543.143,799.342 547.143,796.842 551.5,795C 572.175,794.167 592.841,794.334 613.5,795.5C 615.059,797.131 617.059,797.964 619.5,798C 620.155,799.487 621.155,800.653 622.5,801.5C 623.105,804.304 623.938,806.971 625,809.5C 625.333,865.833 625.667,922.167 626,978.5C 626.419,979.672 627.085,980.672 628,981.5C 631.106,1014 648.939,1027.67 681.5,1022.5C 681.5,1021.5 681.5,1020.5 681.5,1019.5C 683.167,1019.5 684.833,1019.5 686.5,1019.5C 686.162,1016.84 686.829,1014.51 688.5,1012.5C 689.33,1006.53 689.83,1000.53 690,994.5C 690.414,994.043 690.914,993.709 691.5,993.5C 692.333,931.169 692.833,868.836 693,806.5C 694.849,803.966 696.515,801.3 698,798.5C 700.585,798.037 702.752,796.87 704.5,795C 730.84,794.167 757.173,794.333 783.5,795.5C 786.809,796.724 789.642,798.724 792,801.5C 792.249,804.177 793.249,806.51 795,808.5C 795.167,820.181 795.667,831.848 796.5,843.5C 800.482,841.183 803.815,838.183 806.5,834.5C 807.736,833.754 809.07,833.421 810.5,833.5C 810.703,831.362 811.703,829.695 813.5,828.5C 817.09,826.908 820.09,824.575 822.5,821.5C 823.736,820.754 825.07,820.421 826.5,820.5C 826.281,819.325 826.614,818.325 827.5,817.5C 835.952,811.086 844.285,804.586 852.5,798C 853.793,797.51 855.127,797.343 856.5,797.5C 856.435,797.938 856.601,798.272 857,798.5C 857.925,797.953 858.758,797.287 859.5,796.5C 923.401,795.169 987.234,795.169 1051,796.5C 1051.46,795.906 1051.63,795.239 1051.5,794.5C 1054.99,796.808 1058.99,797.975 1063.5,798C 1068.3,799.989 1072.97,802.156 1077.5,804.5C 1077.5,805.5 1077.5,806.5 1077.5,807.5C 1078.5,807.5 1079.5,807.5 1080.5,807.5C 1085.87,814.968 1091.03,822.635 1096,830.5C 1098.46,836.924 1100.13,843.591 1101,850.5C 1101.67,863.167 1101.67,875.833 1101,888.5C 1100.05,896.986 1098.38,905.319 1096,913.5C 1095.59,913.957 1095.09,914.291 1094.5,914.5C 1093.88,919.696 1092.71,924.696 1091,929.5C 1087.5,935.965 1084.16,942.632 1081,949.5C 1080.51,950.793 1080.34,952.127 1080.5,953.5C 1079.5,953.5 1078.5,953.5 1077.5,953.5C 1077.27,956.577 1076.27,959.41 1074.5,962C 1069.33,970.685 1063.66,979.018 1057.5,987C 1068,999.098 1077,1012.26 1084.5,1026.5C 1085.31,1028.77 1085.81,1031.1 1086,1033.5C 1086.67,1034.17 1087.33,1034.83 1088,1035.5C 1087.96,1040.47 1088.96,1045.13 1091,1049.5C 1091.67,1054.17 1091.67,1058.83 1091,1063.5C 1089.3,1067.66 1088.3,1071.99 1088,1076.5C 1084.75,1079.79 1082.25,1083.45 1080.5,1087.5C 1079.5,1087.5 1078.5,1087.5 1077.5,1087.5C 1077.5,1088.5 1077.5,1089.5 1077.5,1090.5C 1076.5,1090.5 1075.5,1090.5 1074.5,1090.5C 1074.5,1091.5 1074.5,1092.5 1074.5,1093.5C 1072.83,1093.5 1071.17,1093.5 1069.5,1093.5C 1069.67,1094.82 1069.34,1095.99 1068.5,1097C 1066.03,1097.11 1064.03,1098.11 1062.5,1100C 992.834,1100.5 923.167,1100.67 853.5,1100.5C 852.643,1097.96 851.31,1095.62 849.5,1093.5C 848.5,1019.84 848.167,946.17 848.5,872.5C 832.497,872.667 816.497,872.5 800.5,872C 799.383,870.108 797.716,869.275 795.5,869.5C 795.667,905.835 795.5,942.168 795,978.5C 794.586,978.957 794.086,979.291 793.5,979.5C 792.669,985.807 792.169,992.141 792,998.5C 789.015,1008.41 786.515,1018.41 784.5,1028.5C 783.5,1028.5 782.5,1028.5 781.5,1028.5C 781.345,1032.63 780.512,1036.63 779,1040.5C 773.157,1049.8 766.991,1058.8 760.5,1067.5C 759.5,1067.5 758.5,1067.5 757.5,1067.5C 757.649,1068.55 757.483,1069.55 757,1070.5C 754.963,1072.47 753.13,1074.63 751.5,1077C 749.866,1077.49 748.199,1077.66 746.5,1077.5C 746.5,1078.5 746.5,1079.5 746.5,1080.5C 745.5,1080.5 744.5,1080.5 743.5,1080.5C 743.719,1081.68 743.386,1082.68 742.5,1083.5C 740.336,1084 738.669,1085.16 737.5,1087C 735.833,1087.33 734.167,1087.67 732.5,1088C 727.901,1091.77 722.567,1093.77 716.5,1094C 715.833,1095.33 714.833,1096.33 713.5,1097C 710.118,1097.18 706.785,1097.68 703.5,1098.5C 703.291,1099.09 702.957,1099.59 702.5,1100C 679.502,1100.5 656.502,1100.67 633.5,1100.5C 633.5,1099.5 633.5,1098.5 633.5,1097.5C 629.486,1097.67 625.486,1097.5 621.5,1097C 618.919,1094.01 615.586,1092.85 611.5,1093.5C 611.5,1092.5 611.5,1091.5 611.5,1090.5C 608.833,1090.5 606.167,1090.5 603.5,1090.5C 603.5,1089.5 603.5,1088.5 603.5,1087.5C 601.833,1087.5 600.167,1087.5 598.5,1087.5C 598.5,1086.5 598.5,1085.5 598.5,1084.5C 594.759,1085.4 592.759,1084.07 592.5,1080.5C 589.677,1079.78 587.01,1078.78 584.5,1077.5C 583.833,1075.5 583.167,1073.5 582.5,1071.5C 577.943,1071.27 575.276,1068.94 574.5,1064.5C 573.5,1064.5 572.5,1064.5 571.5,1064.5C 568.491,1059.45 565.825,1054.11 563.5,1048.5C 562.5,1048.5 561.5,1048.5 560.5,1048.5C 560.5,1046.17 560.5,1043.83 560.5,1041.5C 559.5,1041.5 558.5,1041.5 557.5,1041.5C 555.549,1034.94 553.049,1028.61 550,1022.5C 548.235,1015.95 547.402,1009.28 547.5,1002.5C 546.5,1002.5 545.5,1002.5 544.5,1002.5C 544.828,997.125 544.495,991.792 543.5,986.5C 542.914,986.291 542.414,985.957 542,985.5C 541.5,954.502 541.333,923.502 541.5,892.5C 538.05,893.244 536.384,891.91 536.5,888.5C 533.833,888.5 531.167,888.5 528.5,888.5C 528.5,887.5 528.5,886.5 528.5,885.5C 525.833,885.5 523.167,885.5 520.5,885.5C 520.5,884.5 520.5,883.5 520.5,882.5C 517.833,882.5 515.167,882.5 512.5,882.5C 512.5,881.5 512.5,880.5 512.5,879.5C 510.143,879.663 507.81,879.497 505.5,879C 504.663,877.989 504.33,876.822 504.5,875.5C 501.833,875.5 499.167,875.5 496.5,875.5C 496.5,874.5 496.5,873.5 496.5,872.5C 494.5,872.5 492.5,872.5 490.5,872.5C 489.523,870.179 488.523,867.846 487.5,865.5C 488.547,864.922 488.38,864.256 487,863.5C 486.167,864.333 485.333,865.167 484.5,866C 484.5,938 484.5,1010 484.5,1082C 485.085,1083.3 485.751,1084.47 486.5,1085.5C 485.736,1091.83 482.736,1096.66 477.5,1100C 448.081,1100.98 418.747,1100.65 389.5,1099C 386.626,1097.7 384.793,1095.53 384,1092.5C 383.5,1072.5 383.333,1052.5 383.5,1032.5C 361.167,1032.5 338.833,1032.5 316.5,1032.5C 316.667,1050.5 316.5,1068.5 316,1086.5C 314.227,1091.72 311.727,1096.39 308.5,1100.5C 285.164,1100.67 261.831,1100.5 238.5,1100C 236.543,1098.25 235.543,1096.09 235.5,1093.5C 234.5,1093.5 233.5,1093.5 232.5,1093.5C 232.5,1026.5 232.5,959.5 232.5,892.5C 230.833,892.5 229.167,892.5 227.5,892.5C 227.5,891.167 227.5,889.833 227.5,888.5C 224.833,888.5 222.167,888.5 219.5,888.5C 219.5,887.5 219.5,886.5 219.5,885.5C 216.833,885.5 214.167,885.5 211.5,885.5C 211.5,884.5 211.5,883.5 211.5,882.5C 205.99,881.884 200.656,880.717 195.5,879C 194.663,877.989 194.33,876.822 194.5,875.5C 191.833,875.5 189.167,875.5 186.5,875.5C 186.5,874.5 186.5,873.5 186.5,872.5C 184.833,872.5 183.167,872.5 181.5,872.5C 181.5,871.5 181.5,870.5 181.5,869.5C 180.5,869.5 179.5,869.5 178.5,869.5C 175.704,861.103 175.871,852.769 179,844.5C 196.399,830.582 213.566,816.582 230.5,802.5C 234.121,799.377 238.121,796.877 242.5,795C 262.833,794.333 283.167,794.333 303.5,795C 305.633,796.899 308.133,798.065 311,798.5C 313.257,801.438 314.424,804.771 314.5,808.5 Z M 929.5,872.5 C 948.179,872.167 966.845,872.5 985.5,873.5C 985.709,874.086 986.043,874.586 986.5,875C 991.489,875.499 996.489,875.666 1001.5,875.5C 1001.33,876.822 1001.66,877.989 1002.5,879C 1005.62,880.721 1008.96,881.888 1012.5,882.5C 1014.55,885.487 1016.05,888.82 1017,892.5C 1017.5,899.594 1016.83,906.594 1015,913.5C 1011.47,921.519 1007.63,929.519 1003.5,937.5C 1000.03,934.866 996.696,932.032 993.5,929C 991.975,927.991 990.308,927.491 988.5,927.5C 988.5,926.5 988.5,925.5 988.5,924.5C 984.579,923.943 981.245,922.11 978.5,919C 974.405,916.874 970.405,914.707 966.5,912.5C 961.764,911.898 957.431,910.564 953.5,908.5C 953.5,909.5 953.5,910.5 953.5,911.5C 951.533,911.261 949.699,911.594 948,912.5C 946.043,917.218 944.21,921.885 942.5,926.5C 942.667,927.833 942.833,929.167 943,930.5C 944.914,933.697 946.748,937.03 948.5,940.5C 949.845,941.347 950.845,942.513 951.5,944C 952.793,944.49 954.127,944.657 955.5,944.5C 955.5,945.5 955.5,946.5 955.5,947.5C 956.5,947.5 957.5,947.5 958.5,947.5C 958.5,948.5 958.5,949.5 958.5,950.5C 960.813,951.668 963.146,953.002 965.5,954.5C 966.386,955.325 966.719,956.325 966.5,957.5C 967.5,957.5 968.5,957.5 969.5,957.5C 969.5,958.5 969.5,959.5 969.5,960.5C 971.167,960.5 972.833,960.5 974.5,960.5C 974.5,961.5 974.5,962.5 974.5,963.5C 975.5,963.5 976.5,963.5 977.5,963.5C 977.351,964.552 977.517,965.552 978,966.5C 980.037,968.467 981.87,970.634 983.5,973C 985.134,973.494 986.801,973.66 988.5,973.5C 989.801,977.108 991.468,980.441 993.5,983.5C 994.5,983.5 995.5,983.5 996.5,983.5C 997.167,985.5 997.833,987.5 998.5,989.5C 999.5,989.5 1000.5,989.5 1001.5,989.5C 1004.99,997.354 1008.66,1005.02 1012.5,1012.5C 1011.5,1012.5 1010.5,1012.5 1009.5,1012.5C 1009.25,1015.47 1007.59,1016.8 1004.5,1016.5C 1004.5,1017.5 1004.5,1018.5 1004.5,1019.5C 1002.14,1019.34 999.81,1019.5 997.5,1020C 997.043,1020.41 996.709,1020.91 996.5,1021.5C 988.528,1022.5 980.528,1022.83 972.5,1022.5C 972.5,1023.5 972.5,1024.5 972.5,1025.5C 959.167,1025.5 945.833,1025.5 932.5,1025.5C 932.667,976.832 932.5,928.166 932,879.5C 930.097,877.559 929.264,875.226 929.5,872.5 Z"/></g>
<g><path style="opacity:0.012" fill="#fdfdfd" d="M 1051.5,794.5 C 1051.63,795.239 1051.46,795.906 1051,796.5C 987.234,795.169 923.401,795.169 859.5,796.5C 858.758,797.287 857.925,797.953 857,798.5C 856.601,798.272 856.435,797.938 856.5,797.5C 856.577,796.25 857.244,795.417 858.5,795C 922.832,794.5 987.166,794.333 1051.5,794.5 Z"/></g>
<g><path style="opacity:0.008" fill="#fefffe" d="M 314.5,808.5 C 315.222,808.918 315.722,809.584 316,810.5C 316.167,866.335 316.667,922.001 317.5,977.5C 318.593,979.567 318.093,980.234 316,979.5C 315.667,923.833 315.333,868.167 315,812.5C 314.691,811.234 314.191,810.067 313.5,809C 313.728,808.601 314.062,808.435 314.5,808.5 Z"/></g>
<g><path style="opacity:0.01" fill="#fefffe" d="M 487.5,865.5 C 486.501,938.665 486.167,1012 486.5,1085.5C 485.751,1084.47 485.085,1083.3 484.5,1082C 484.5,1010 484.5,938 484.5,866C 485.333,865.167 486.167,864.333 487,863.5C 488.38,864.256 488.547,864.922 487.5,865.5 Z"/></g>
</svg>
